HIERARCHY
ROOT hip
{
  OFFSET 0 0 0
  CHANNELS 6 Xposition Yposition Zposition Zrotation Yrotation Xrotation
  JOINT abdomen
  {
    OFFSET 0 20.6881 -0.73152
    CHANNELS 3 Zrotation Xrotation Yrotation
    JOINT chest
    {
      OFFSET 0 11.7043 -0.48768
      CHANNELS 3 Zrotation Xrotation Yrotation
      JOINT neck
      {
        OFFSET 0 22.1894 -2.19456
        CHANNELS 3 Zrotation Xrotation Yrotation
        JOINT head
        {
          OFFSET -0.24384 7.07133 1.2192
          CHANNELS 3 Zrotation Xrotation Yrotation
          JOINT leftEye
          {
            OFFSET 4.14528 8.04674 8.04672
            CHANNELS 3 Zrotation Xrotation Yrotation
            End Site
            {
              OFFSET 1 0 0
            }
          }
          JOINT rightEye
          {
            OFFSET -3.6576 8.04674 8.04672
            CHANNELS 3 Zrotation Xrotation Yrotation
            End Site
            {
              OFFSET 1 0 0
            }
          }
        }
      }
      JOINT rCollar
      {
        OFFSET -2.68224 19.2634 -4.8768
        CHANNELS 3 Zrotation Xrotation Yrotation
        JOINT rShldr
        {
          OFFSET -8.77824 -1.95073 1.46304
          CHANNELS 3 Zrotation Xrotation Yrotation
          JOINT rForeArm
          {
            OFFSET -28.1742 -1.7115 0.48768
            CHANNELS 3 Zrotation Xrotation Yrotation
            JOINT rHand
            {
              OFFSET -22.5879 0.773209 7.07136
              CHANNELS 3 Zrotation Xrotation Yrotation
              JOINT rThumb1
              {
                OFFSET -1.2192 -0.487915 3.41376
                CHANNELS 3 Zrotation Xrotation Yrotation
                JOINT rThumb2
                {
                  OFFSET -3.37035 -0.52449 3.41376
                  CHANNELS 3 Zrotation Xrotation Yrotation
                  End Site
                  {
                    OFFSET -1.78271 -1.18214 1.43049
                  }
                }
              }
              JOINT rIndex1
              {
                OFFSET -7.75947 0.938293 5.60832
                CHANNELS 3 Zrotation Xrotation Yrotation
                JOINT rIndex2
                {
                  OFFSET -2.54057 -0.884171 1.56538
                  CHANNELS 3 Zrotation Xrotation Yrotation
                  End Site
                  {
                    OFFSET -1.62519 -0.234802 1.16502
                  }
                }
              }
              JOINT rMid1
              {
                OFFSET -8.24714 1.18213 3.41376
                CHANNELS 3 Zrotation Xrotation Yrotation
                JOINT rMid2
                {
                  OFFSET -3.10165 -0.590103 1.0647
                  CHANNELS 3 Zrotation Xrotation Yrotation
                  End Site
                  {
                    OFFSET -2.48547 -0.328903 0.83742
                  }
                }
              }
              JOINT rRing1
              {
                OFFSET -8.82822 0.546677 1.51678
                CHANNELS 3 Zrotation Xrotation Yrotation
                JOINT rRing2
                {
                  OFFSET -2.60934 -0.819778 -0.0198488
                  CHANNELS 3 Zrotation Xrotation Yrotation
                  End Site
                  {
                    OFFSET -2.33842 -0.294052 0.168128
                  }
                }
              }
              JOINT rPinky1
              {
                OFFSET -8.27202 -0.0477905 -0.4584
                CHANNELS 3 Zrotation Xrotation Yrotation
                JOINT rPinky2
                {
                  OFFSET -1.82734 -0.647385 -0.700984
                  CHANNELS 3 Zrotation Xrotation Yrotation
                  End Site
                  {
                    OFFSET -1.69225 -0.51767 -0.607171
                  }
                }
              }
            }
          }
        }
      }
      JOINT lCollar
      {
        OFFSET 2.68224 19.2634 -4.8768
        CHANNELS 3 Zrotation Xrotation Yrotation
        JOINT lShldr
        {
          OFFSET 8.77824 -1.95073 1.46304
          CHANNELS 3 Zrotation Xrotation Yrotation
          JOINT lForeArm
          {
            OFFSET 28.1742 -1.7115 0.48768
            CHANNELS 3 Zrotation Xrotation Yrotation
            JOINT lHand
            {
              OFFSET 22.5879 0.773209 7.07136
              CHANNELS 3 Zrotation Xrotation Yrotation
              JOINT lThumb1
              {
                OFFSET 1.2192 -0.487915 3.41376
                CHANNELS 3 Zrotation Xrotation Yrotation
                JOINT lThumb2
                {
                  OFFSET 3.37035 -0.52449 3.41376
                  CHANNELS 3 Zrotation Xrotation Yrotation
                  End Site
                  {
                    OFFSET 1.78271 -1.18214 1.43049
                  }
                }
              }
              JOINT lIndex1
              {
                OFFSET 7.75947 0.938293 5.60832
                CHANNELS 3 Zrotation Xrotation Yrotation
                JOINT lIndex2
                {
                  OFFSET 2.54057 -0.884171 1.56538
                  CHANNELS 3 Zrotation Xrotation Yrotation
                  End Site
                  {
                    OFFSET 1.62519 -0.234802 1.16502
                  }
                }
              }
              JOINT lMid1
              {
                OFFSET 8.24714 1.18213 3.41376
                CHANNELS 3 Zrotation Xrotation Yrotation
                JOINT lMid2
                {
                  OFFSET 3.10165 -0.590103 1.0647
                  CHANNELS 3 Zrotation Xrotation Yrotation
                  End Site
                  {
                    OFFSET 2.48547 -0.328903 0.83742
                  }
                }
              }
              JOINT lRing1
              {
                OFFSET 8.82822 0.546677 1.51678
                CHANNELS 3 Zrotation Xrotation Yrotation
                JOINT lRing2
                {
                  OFFSET 2.60934 -0.819778 -0.0198488
                  CHANNELS 3 Zrotation Xrotation Yrotation
                  End Site
                  {
                    OFFSET 2.33842 -0.294052 0.168128
                  }
                }
              }
              JOINT lPinky1
              {
                OFFSET 8.27202 -0.0477905 -0.4584
                CHANNELS 3 Zrotation Xrotation Yrotation
                JOINT lPinky2
                {
                  OFFSET 1.82734 -0.647385 -0.700984
                  CHANNELS 3 Zrotation Xrotation Yrotation
                  End Site
                  {
                    OFFSET 1.69225 -0.51767 -0.607171
                  }
                }
              }
            }
          }
        }
      }
    }
  }
  JOINT rButtock
  {
    OFFSET -8.77824 4.35084 1.2192
    CHANNELS 3 Zrotation Xrotation Yrotation
    JOINT rThigh
    {
      OFFSET 0 -1.70687 -2.19456
      CHANNELS 3 Zrotation Xrotation Yrotation
      JOINT rShin
      {
        OFFSET 0 -36.8199 0.73152
        CHANNELS 3 Zrotation Xrotation Yrotation
        JOINT rFoot
        {
          OFFSET 0.73152 -45.1104 -5.12064
          CHANNELS 3 Zrotation Xrotation Yrotation
          End Site
          {
            OFFSET -1.1221 -3.69964 12.103
          }
        }
      }
    }
  }
  JOINT lButtock
  {
    OFFSET 8.77824 4.35084 1.2192
    CHANNELS 3 Zrotation Xrotation Yrotation
    JOINT lThigh
    {
      OFFSET 0 -1.70687 -2.19456
      CHANNELS 3 Zrotation Xrotation Yrotation
      JOINT lShin
      {
        OFFSET 0 -36.8199 0.73152
        CHANNELS 3 Zrotation Xrotation Yrotation
        JOINT lFoot
        {
          OFFSET -0.73152 -45.1104 -5.12064
          CHANNELS 3 Zrotation Xrotation Yrotation
          End Site
          {
            OFFSET 1.1221 -3.69964 12.103
          }
        }
      }
    }
  }
}
MOTION
Frames:	4
Frame Time:	0.00833333
7.56993 84.3024 42.0365 2.7856 1.5527 -3.2235 -5.33035 9.29434 -2.31185 3.77546 -3.85278 -0.66923 -1.25646 -0.40825 -2.8552 0.837107 -4.78378 -5.26659 -0.0 0.0 0.0 -0.0 0.0 0.0 -4.47684e-14 -9.61753e-14 -1.16475e-15 80.9048 14.538 -1.091 -14.0121 -6.96431 25.5779 -0.00458962 1.93924 0.272647 8.26585e-11 -6.26483e-10 6.69133e-10 1.43838e-10 -1.08353e-09 1.15668e-09 8.26606e-11 -6.26482e-10 6.69125e-10 7.73091 5.47488 0.417314 8.26562e-11 -6.26483e-10 6.69131e-10 2.90554 0.965183 0.102902 8.26645e-11 -6.26483e-10 6.69132e-10 10.2786 0.731801 0.0259123 8.26545e-11 -6.26483e-10 6.69141e-10 2.22167 -0.733487 -0.20892 -4.48554e-14 -9.61738e-14 -1.46604e-15 -70.3751 31.4224 -2.8492 16.7013 -9.35569 -31.1668 0.0454239 -6.07021 0.856352 1.60825e-10 -3.05795e-10 -3.79698e-10 2.77677e-10 -5.28224e-10 -6.56734e-10 1.6082e-10 -3.0579e-10 -3.79671e-10 -7.73091 5.47488 -0.417314 1.60828e-10 -3.05792e-10 -3.79693e-10 -2.90554 0.965183 -0.102902 1.60815e-10 -3.05791e-10 -3.79693e-10 -10.2786 0.731801 -0.0259123 1.60826e-10 -3.05791e-10 -3.79699e-10 -2.22167 -0.733487 0.20892 -2.03217e-16 0.0 -3.88251e-19 -3.57371 -32.3888 -0.293615 -0.191451 30.3586 0.659215 -2.11729 -3.57993 -10.6421 2.03217e-16 0.0 3.88251e-19 -8.86578 -1.5454 -2.33642 -0.0375623 26.085 -0.912815 0.253929 -18.003 -1.03417
7.52891 84.2893 42.8812 2.7982 1.669 -3.0854 -5.32997 8.96862 -2.5388 3.88248 -3.6087 -0.728446 -1.22724 -0.588812 -2.85887 0.799 -4.6537 -5.28208 -0.0 0.0 0.0 -0.0 0.0 0.0 3.61034e-14 -2.7267e-14 -1.18219e-14 80.9299 14.3858 -1.03872 -13.9577 -6.9204 25.4687 -0.00533536 2.09 0.293862 -4.17518e-10 -1.2009e-10 -1.10695e-10 -7.21832e-10 -2.08453e-10 -1.90654e-10 -4.17518e-10 -1.2009e-10 -1.10704e-10 7.73091 5.47488 0.417314 -4.17521e-10 -1.2009e-10 -1.10698e-10 2.90554 0.965183 0.102902 -4.17515e-10 -1.20091e-10 -1.10696e-10 10.2786 0.731801 0.0259123 -4.17524e-10 -1.2009e-10 -1.10688e-10 2.22167 -0.733487 -0.20892 3.60119e-14 -2.72653e-14 -1.21282e-14 -70.0467 31.333 -3.19892 16.7728 -9.42575 -31.3212 0.0440788 -5.98102 0.843674 -2.32789e-10 -5.51813e-10 -2.6741e-10 -4.01408e-10 -9.52933e-10 -4.63229e-10 -2.32793e-10 -5.51803e-10 -2.67389e-10 -7.73091 5.47488 -0.417314 -2.32786e-10 -5.51805e-10 -2.67406e-10 -2.90554 0.965183 -0.102902 -2.328e-10 -5.51805e-10 -2.67408e-10 -10.2786 0.731801 -0.0259123 -2.32791e-10 -5.51806e-10 -2.67414e-10 -2.22167 -0.733487 0.20892 -2.03217e-16 0.0 -3.88251e-19 -3.37923 -31.7353 0.926999 -0.156485 26.9881 0.605882 -2.48355 -5.02951 -11.3956 2.03217e-16 0.0 3.88251e-19 -8.9099 -0.605418 -2.50973 -0.039941 25.1492 -0.883541 0.329713 -17.9874 -0.759237
7.61845 84.3046 43.7825 3.1359 1.9525 -2.9777 -5.28637 8.66472 -2.73028 3.98181 -3.42167 -0.776394 -1.21948 -0.678155 -2.8599 0.794136 -4.59932 -5.28571 -0.0 0.0 0.0 -0.0 0.0 0.0 8.37833e-14 1.62996e-14 -9.79014e-15 80.9684 14.2387 -1.05404 -13.9241 -6.89335 25.4016 -0.00605511 2.22126 0.312336 -7.63188e-10 3.06381e-10 -5.60751e-10 -1.32004e-09 5.28805e-10 -9.67954e-10 -7.63189e-10 3.06381e-10 -5.6076e-10 7.73091 5.47488 0.417314 -7.63191e-10 3.06381e-10 -5.60754e-10 2.90554 0.965183 0.102902 -7.63186e-10 3.0638e-10 -5.60752e-10 10.2786 0.731801 0.0259123 -7.63194e-10 3.06381e-10 -5.60745e-10 2.22167 -0.733487 -0.20892 8.36983e-14 1.63011e-14 -1.00883e-14 -69.7552 31.2834 -3.50413 16.831 -9.48284 -31.4474 0.0429584 -5.90506 0.832882 -4.9484e-10 -7.43009e-10 -1.54829e-10 -8.53783e-10 -1.28358e-09 -2.68897e-10 -4.94844e-10 -7.42995e-10 -1.54813e-10 -7.73091 5.47488 -0.417314 -4.94836e-10 -7.42998e-10 -1.54826e-10 -2.90554 0.965183 -0.102902 -4.94851e-10 -7.42997e-10 -1.54829e-10 -10.2786 0.731801 -0.0259123 -4.94842e-10 -7.43e-10 -1.54836e-10 -2.22167 -0.733487 0.20892 -2.03217e-16 0.0 -3.88251e-19 -3.1411 -31.1202 2.34745 -0.125667 23.7718 0.554887 -2.8302 -6.09739 -12.2509 2.03217e-16 0.0 3.88251e-19 -8.87352 0.263626 -2.60614 -0.0407201 24.277 -0.853449 0.356598 -17.9428 -0.625031
7.61655 84.3148 44.6239 3.3061 2.0293 -2.7707 -5.15525 8.37786 -2.87286 4.06879 -3.3063 -0.808066 -1.24525 -0.628836 -2.85243 0.850753 -4.66167 -5.26171 -0.0 0.0 0.0 -0.0 0.0 0.0 7.42818e-14 2.11981e-14 1.40597e-14 81.0274 14.0963 -1.16588 -13.9209 -6.89077 25.3953 -0.00669149 2.33184 0.327902 -8.49673e-10 6.34842e-10 -4.97521e-10 -1.46974e-09 1.09727e-09 -8.58101e-10 -8.49673e-10 6.34842e-10 -4.97531e-10 7.73091 5.47488 0.417314 -8.49675e-10 6.34843e-10 -4.97525e-10 2.90554 0.965183 0.102902 -8.4967e-10 6.34841e-10 -4.97522e-10 10.2786 0.731801 0.0259123 -8.49678e-10 6.34843e-10 -4.97515e-10 2.22167 -0.733487 -0.20892 7.42277e-14 2.11991e-14 1.37942e-14 -69.4978 31.2965 -3.7637 16.87 -9.52123 -31.5321 0.0420786 -5.84478 0.82432 -5.24865e-10 -7.89076e-10 -1.09973e-11 -9.06309e-10 -1.36464e-09 -1.98754e-11 -5.24871e-10 -7.89063e-10 -1.09869e-11 -7.73091 5.47488 -0.417314 -5.24862e-10 -7.89066e-10 -1.09956e-11 -2.90554 0.965183 -0.102902 -5.24874e-10 -7.89064e-10 -1.0998e-11 -10.2786 0.731801 -0.0259123 -5.24865e-10 -7.89066e-10 -1.10051e-11 -2.22167 -0.733487 0.20892 -2.03217e-16 0.0 -3.88251e-19 -2.78288 -30.5068 4.22915 -0.0957256 20.5769 0.499951 -3.14022 -6.63672 -13.3398 2.03217e-16 0.0 3.88251e-19 -8.70305 1.02121 -2.58519 -0.0393082 23.4734 -0.819612 0.295632 -17.8424 -0.739709
